<svg xmlns="http://www.w3.org/2000/svg" xmlns:xlink="http://www.w3.org/1999/xlink" width="362" height="640" viewBox="0 0 362 640">
  <defs>
    <linearGradient id="linear-gradient" x1="1" x2="0.001" y2="0.998" gradientUnits="objectBoundingBox">
      <stop offset="0" stop-color="#5658af"/>
      <stop offset="1" stop-color="#9a60b6"/>
    </linearGradient>
  </defs>
  <g id="그룹_110" data-name="그룹 110" transform="translate(-617 89)">
    <rect id="사각형_77" data-name="사각형 77" width="360" height="640" transform="translate(619 -89)" fill="url(#linear-gradient)"/>
    <g id="그룹_109" data-name="그룹 109">
      <rect id="사각형_78" data-name="사각형 78" width="362" height="640" transform="translate(617 -89)" fill="#d7bfe2" opacity="0.2" style="mix-blend-mode: color-burn;isolation: isolate"/>
      <g id="그룹_105" data-name="그룹 105" transform="translate(619 -89)">
        <path id="패스_1" data-name="패스 1" d="M127.5,83a29.179,29.179,0,0,0-27.789,20.287,37.5,37.5,0,1,0,15,35.083A29.17,29.17,0,1,0,127.5,83Z" transform="translate(-22 -1)" fill="#d7bfe2" opacity="0.293" style="mix-blend-mode: hard-light;isolation: isolate"/>
        <circle id="타원_1" data-name="타원 1" cx="20.83" cy="20.83" r="20.83" transform="translate(148.67 67)" fill="#d7bfe2" opacity="0.15" style="mix-blend-mode: hard-light;isolation: isolate"/>
        <circle id="타원_2" data-name="타원 2" cx="12.5" cy="12.5" r="12.5" transform="translate(204 60)" fill="#d7bfe2" opacity="0.089" style="mix-blend-mode: hard-light;isolation: isolate"/>
      </g>
      <g id="그룹_106" data-name="그룹 106" transform="translate(619 -4)">
        <circle id="타원_3" data-name="타원 3" cx="13" cy="13" r="13" transform="translate(308 434)" fill="#d7bfe2" opacity="0.35"/>
        <circle id="타원_4" data-name="타원 4" cx="7" cy="7" r="7" transform="translate(44 433)" fill="#d7bfe2" opacity="0.49" style="mix-blend-mode: hard-light;isolation: isolate"/>
        <circle id="타원_5" data-name="타원 5" cx="8.5" cy="8.5" r="8.5" transform="translate(23 399)" fill="#d7bfe2" opacity="0.24" style="mix-blend-mode: hard-light;isolation: isolate"/>
        <circle id="타원_6" data-name="타원 6" cx="4" cy="4" r="4" transform="translate(35 444)" fill="#d7bfe2" opacity="0.17" style="mix-blend-mode: hard-light;isolation: isolate"/>
        <circle id="타원_7" data-name="타원 7" cx="4" cy="4" r="4" transform="translate(314 378)" fill="#d7bfe2" opacity="0.43" style="mix-blend-mode: hard-light;isolation: isolate"/>
        <circle id="타원_8" data-name="타원 8" cx="6" cy="6" r="6" transform="translate(40 359)" fill="#d7bfe2" opacity="0.58" style="mix-blend-mode: hard-light;isolation: isolate"/>
        <circle id="타원_9" data-name="타원 9" cx="4" cy="4" r="4" transform="translate(23 326)" fill="#d7bfe2" opacity="0.24" style="mix-blend-mode: hard-light;isolation: isolate"/>
        <circle id="타원_10" data-name="타원 10" cx="8" cy="8" r="8" transform="translate(326 401)" fill="#d7bfe2" opacity="0.24" style="mix-blend-mode: hard-light;isolation: isolate"/>
      </g>
    </g>
  </g>
</svg>
