<svg xmlns="http://www.w3.org/2000/svg" xmlns:xlink="http://www.w3.org/1999/xlink" width="332" height="332" viewBox="0 0 332 332">
  <defs>
    <filter id="타원_26" x="0" y="0" width="332" height="332" filterUnits="userSpaceOnUse">
      <feOffset dy="6" input="SourceAlpha"/>
      <feGaussianBlur stdDeviation="6" result="blur"/>
      <feFlood flood-opacity="0.161"/>
      <feComposite operator="in" in2="blur"/>
      <feComposite in="SourceGraphic"/>
    </filter>
    <filter id="HERE_TO_HELP" x="58" y="212" width="218" height="54" filterUnits="userSpaceOnUse">
      <feOffset dy="3" input="SourceAlpha"/>
      <feGaussianBlur stdDeviation="3" result="blur-2"/>
      <feFlood flood-opacity="0.161"/>
      <feComposite operator="in" in2="blur-2"/>
      <feComposite in="SourceGraphic"/>
    </filter>
  </defs>
  <g id="그룹_108" data-name="그룹 108" transform="translate(-633 -63)">
    <g transform="matrix(1, 0, 0, 1, 633, 63)" filter="url(#타원_26)">
      <g id="타원_26-2" data-name="타원 26" transform="translate(18 12)" fill="#8c73c2" stroke="#7758aa" stroke-width="1" opacity="0.738">
        <circle cx="148" cy="148" r="148" stroke="none"/>
        <circle cx="148" cy="148" r="147.5" fill="none"/>
      </g>
    </g>
    <g transform="matrix(1, 0, 0, 1, 633, 63)" filter="url(#HERE_TO_HELP)">
      <text id="HERE_TO_HELP-2" data-name="HERE TO HELP" transform="translate(67 247)" fill="#fff" font-size="29" font-family="Righteous-Regular, Righteous"><tspan x="0" y="0">HERE TO HELP</tspan></text>
    </g>
    <g id="그룹_107" data-name="그룹 107" transform="translate(745.603 125.603)">
      <g id="그룹_3" data-name="그룹 3" transform="translate(0 0)">
        <g id="그룹_1" data-name="그룹 1">
          <path id="패스_7" data-name="패스 7" d="M352.176,348.524h7.234c2.831,0,4.079-2.167,3.048-3.862-20.754-34.164-12.24-76.964-9.47-88.209,15.424,25.363,36.766,26.076,36.766,26.076v-8.491s-32.327-7.228-29.669-40.549a5.937,5.937,0,0,0-2.428-5.063l0,0a5.858,5.858,0,0,0-9.059,2.61c-16.315,43.585-15.937,76.292-.407,114.8A4.321,4.321,0,0,0,352.176,348.524Z" transform="translate(-336.45 -198.161)" fill="#6fb2e8"/>
          <ellipse id="타원_12" data-name="타원 12" cx="12.027" cy="12.556" rx="12.027" ry="12.556" transform="translate(13.677 23.931) rotate(-84.195)" fill="#6fb2e8"/>
        </g>
        <g id="그룹_2" data-name="그룹 2" transform="translate(53.303 0)">
          <path id="패스_8" data-name="패스 8" d="M433.583,348.524h-7.234c-2.831,0-4.079-2.167-3.049-3.862,20.755-34.164,12.24-76.964,9.471-88.209-15.424,25.363-36.766,26.076-36.766,26.076v-8.491s32.326-7.228,29.669-40.549a5.937,5.937,0,0,1,2.428-5.063l0,0a5.857,5.857,0,0,1,9.058,2.61c16.315,43.585,15.938,76.292.407,114.8A4.319,4.319,0,0,1,433.583,348.524Z" transform="translate(-396.005 -198.161)" fill="#34dcb8"/>
          <ellipse id="타원_13" data-name="타원 13" cx="12.556" cy="12.027" rx="12.556" ry="12.027" transform="translate(12.21 2.54) rotate(-5.805)" fill="#34dcb8"/>
        </g>
      </g>
    </g>
  </g>
</svg>
