<svg id="Layer_2" data-name="Layer 2" xmlns="http://www.w3.org/2000/svg" xmlns:xlink="http://www.w3.org/1999/xlink" width="360" height="640" viewBox="0 0 360 640">
  <defs>
    <linearGradient id="linear-gradient" x1="-2.65" y1="-0.218" x2="-2.653" y2="-0.219" gradientUnits="objectBoundingBox">
      <stop offset="0" stop-color="#5658af"/>
      <stop offset="1" stop-color="#9a60b6"/>
    </linearGradient>
  </defs>
  <g id="Final">
    <g id="사각형_1" data-name="사각형 1">
      <rect id="Rectangle_19" data-name="Rectangle 19" width="360" height="640" fill="url(#linear-gradient)"/>
      <rect id="Rectangle_20" data-name="Rectangle 20" width="359" height="639" transform="translate(0.5 0.5)" fill="none" stroke="#707070" stroke-width="1"/>
    </g>
    <path id="Path_5" data-name="Path 5" d="M250.37,203a17.15,17.15,0,0,1-22.27,19.66l-38.67-13-38.67-13a17.15,17.15,0,0,1-5.89-29.11l30.59-27,30.58-27A17.15,17.15,0,0,1,234.2,123l8.08,40Z" fill="#d7bfe2" opacity="0.24" style="mix-blend-mode: soft-light;isolation: isolate"/>
    <path id="Path_6" data-name="Path 6" d="M310.39,266.16l-9.92,4.75L295.72,261a14,14,0,1,0-25.25,12.1l4.75,9.92-9.92,4.75A14,14,0,1,0,277.39,313l9.92-4.75,4.75,9.92a14,14,0,1,0,25.252-12.091l-4.752-9.919,9.92-4.75a14,14,0,1,0-12.09-25.26Z" fill="#d7bfe2" opacity="0.24" style="mix-blend-mode: soft-light;isolation: isolate"/>
    <circle id="Ellipse_11" data-name="Ellipse 11" cx="26.5" cy="26.5" r="26.5" transform="translate(41.89 262.59)" fill="#d7bfe2" opacity="0.24" style="mix-blend-mode: soft-light;isolation: isolate"/>
    <rect id="Rectangle_21" data-name="Rectangle 21" width="359" height="280" transform="translate(1 360)" fill="#d7bfe2" opacity="0.24" style="mix-blend-mode: soft-light;isolation: isolate"/>
  </g>
</svg>
