<svg id="Layer_1" data-name="Layer 1" xmlns="http://www.w3.org/2000/svg" viewBox="0 0 27.68 27.67"><defs><style>.cls-1{fill:#ffedff;}</style></defs><path id="Path_24" data-name="Path 24" class="cls-1" d="M27.36,13.09,14.58.31a1,1,0,0,0-1.48,0L.31,13.09h0a1.06,1.06,0,0,0,0,1.49,1,1,0,0,0,.72.3H2.44a.92.92,0,0,1,.92.92V26.13A1.54,1.54,0,0,0,4.9,27.67H9V21.21a3.39,3.39,0,0,1,3.38-3.37h3a3.37,3.37,0,0,1,3.38,3.37v6.46h4.09a1.54,1.54,0,0,0,1.54-1.54V15.81a.92.92,0,0,1,.92-.92h1.39a1,1,0,0,0,1.05-1.05,1,1,0,0,0-.31-.74Z"/></svg>