<svg id="Layer_1" data-name="Layer 1" xmlns="http://www.w3.org/2000/svg" viewBox="0 0 85.34 41.95"><defs><style>.cls-1,.cls-2{isolation:isolate;}.cls-2{font-size:20px;fill:#dfe4ea;font-family:Righteous-Regular, Righteous;}.cls-3{fill:#6fb2e8;}.cls-4{fill:#34dcb8;}</style></defs><g id="H2H" class="cls-1"><text class="cls-2" transform="translate(46.33 28.29)">H2H</text></g><g id="Group_7" data-name="Group 7"><g id="Group_5" data-name="Group 5"><path id="Path_9" data-name="Path 9" class="cls-3" d="M4.42,42h2c.8,0,1.15-.61.86-1.09-5.83-9.61-3.44-21.64-2.66-24.8C9,23.19,15,23.39,15,23.39V21S5.9,19,6.64,9.6A1.66,1.66,0,0,0,6,8.18H6a1.65,1.65,0,0,0-2.31.3,1.49,1.49,0,0,0-.23.43C-1.17,21.17-1.07,30.37,3.3,41.2A1.24,1.24,0,0,0,4.42,42Z"/><ellipse id="Ellipse_14" data-name="Ellipse 14" class="cls-3" cx="7.7" cy="3.38" rx="3.38" ry="3.53" transform="translate(3.55 10.7) rotate(-84.19)"/></g><g id="Group_6" data-name="Group 6"><path id="Path_10" data-name="Path 10" class="cls-4" d="M25.56,42h-2c-.8,0-1.15-.61-.86-1.09,5.84-9.61,3.45-21.64,2.67-24.8C21,23.19,15,23.39,15,23.39V21s9.09-2,8.34-11.4A1.69,1.69,0,0,1,24,8.18h0a1.65,1.65,0,0,1,2.31.3,1.82,1.82,0,0,1,.24.43c4.59,12.26,4.48,21.46.12,32.29A1.24,1.24,0,0,1,25.56,42Z"/><ellipse id="Ellipse_15" data-name="Ellipse 15" class="cls-4" cx="22.28" cy="3.38" rx="3.53" ry="3.38" transform="translate(-0.23 2.27) rotate(-5.8)"/></g></g></svg>