<svg id="Layer_1" data-name="Layer 1" xmlns="http://www.w3.org/2000/svg" viewBox="0 0 33.86 29.4"><defs><style>.cls-1{fill:#ffedff;}</style></defs><g id="Group_35" data-name="Group 35"><g id="Group_34" data-name="Group 34"><path id="Path_25" data-name="Path 25" class="cls-1" d="M21.88,21.68l8.82-6.09L21.88,9.5Zm2-8.32,3.23,2.23-3.23,2.23Z"/><path id="Path_26" data-name="Path 26" class="cls-1" d="M17.12,4.08A20.47,20.47,0,0,0,5,0H4V3.52a33.87,33.87,0,0,0-4,.87v25a31.12,31.12,0,0,1,16.69-.33l.24.07.24-.07a31.12,31.12,0,0,1,16.69.33v-25A32.76,32.76,0,0,0,17.12,4.08ZM2,26.76V6c.66-.15,1.32-.29,2-.4V24.94H5a18.41,18.41,0,0,1,6.3,1.14A32.52,32.52,0,0,0,2,26.76Zm14-.62A20.4,20.4,0,0,0,6,22.89V2.11a18.56,18.56,0,0,1,10,3.64Zm15.93.62a32.49,32.49,0,0,0-13.95,0V6a30.44,30.44,0,0,1,14,0Z"/></g></g></svg>