<svg xmlns="http://www.w3.org/2000/svg" xmlns:xlink="http://www.w3.org/1999/xlink" width="332" height="332" viewBox="0 0 332 332">
  <defs>
    <filter id="타원_26" x="0" y="0" width="332" height="332" filterUnits="userSpaceOnUse">
      <feOffset dy="6" input="SourceAlpha"/>
      <feGaussianBlur stdDeviation="6" result="blur"/>
      <feFlood flood-opacity="0.161"/>
      <feComposite operator="in" in2="blur"/>
      <feComposite in="SourceGraphic"/>
    </filter>
    <filter id="패스_71" x="59.883" y="220.439" width="214.699" height="39" filterUnits="userSpaceOnUse">
      <feOffset dy="3" input="SourceAlpha"/>
      <feGaussianBlur stdDeviation="3" result="blur-2"/>
      <feFlood flood-opacity="0.161"/>
      <feComposite operator="in" in2="blur-2"/>
      <feComposite in="SourceGraphic"/>
    </filter>
  </defs>
  <g id="그룹_111" data-name="그룹 111" transform="translate(-227 5)">
    <g transform="matrix(1, 0, 0, 1, 227, -5)" filter="url(#타원_26)">
      <g id="타원_26-2" data-name="타원 26" transform="translate(18 12)" fill="#8c73c2" stroke="#7758aa" stroke-width="1" opacity="0.738">
        <circle cx="148" cy="148" r="148" stroke="none"/>
        <circle cx="148" cy="148" r="147.5" fill="none"/>
      </g>
    </g>
    <g transform="matrix(1, 0, 0, 1, 227, -5)" filter="url(#패스_71)">
      <path id="패스_71-2" data-name="패스 71" d="M5.947,0H1.883V-20.306H5.947v8.128h8.114v-8.128h4.064V0H14.061V-8.114H5.947ZM35.811,0H21.892V-20.306H35.811v4.064H25.956v4.064h6.669v4.064H25.956v4.05h9.855Zm6.91-16.242v8.128h4.064a3.915,3.915,0,0,0,1.572-.319A4.114,4.114,0,0,0,49.646-9.3a4.092,4.092,0,0,0,.871-1.3,3.966,3.966,0,0,0,.319-1.579,3.966,3.966,0,0,0-.319-1.579,4.092,4.092,0,0,0-.871-1.3,4.114,4.114,0,0,0-1.289-.871,3.915,3.915,0,0,0-1.572-.319ZM42.721,0H38.657V-20.306h8.128a7.923,7.923,0,0,1,2.152.29,8.077,8.077,0,0,1,1.933.821,8.241,8.241,0,0,1,1.643,1.274,8.152,8.152,0,0,1,1.274,1.65,8.211,8.211,0,0,1,.821,1.94,7.923,7.923,0,0,1,.29,2.152,7.946,7.946,0,0,1-.262,2.039,8.345,8.345,0,0,1-.75,1.883,7.951,7.951,0,0,1-1.2,1.643A8.1,8.1,0,0,1,51.1-5.31L53.355,0H49.037l-1.77-4.092-4.545.028ZM71.48,0H57.561V-20.306H71.48v4.064H61.625v4.064h6.669v4.064H61.625v4.05H71.48ZM90.965,0h-4.05V-16.242h-6.1v-4.064H97.054v4.064H90.965Zm27.5-10.068a10.257,10.257,0,0,1-.375,2.782,10.713,10.713,0,0,1-1.055,2.506,10.4,10.4,0,0,1-1.643,2.131A10.689,10.689,0,0,1,113.267-1,10.374,10.374,0,0,1,110.761.064a10.333,10.333,0,0,1-2.79.375,10.256,10.256,0,0,1-2.782-.375A10.535,10.535,0,0,1,102.682-1a10.6,10.6,0,0,1-2.131-1.65A10.6,10.6,0,0,1,98.9-4.779,10.535,10.535,0,0,1,97.84-7.285a10.257,10.257,0,0,1-.375-2.782,10.333,10.333,0,0,1,.375-2.79A10.374,10.374,0,0,1,98.9-15.364a10.689,10.689,0,0,1,1.65-2.124,10.4,10.4,0,0,1,2.131-1.643,10.713,10.713,0,0,1,2.506-1.055,10.256,10.256,0,0,1,2.782-.375,10.333,10.333,0,0,1,2.79.375,10.546,10.546,0,0,1,2.506,1.055,10.483,10.483,0,0,1,2.124,1.643,10.482,10.482,0,0,1,1.643,2.124,10.546,10.546,0,0,1,1.055,2.506A10.333,10.333,0,0,1,118.464-10.068Zm-4.036,0a6.281,6.281,0,0,0-.51-2.513,6.523,6.523,0,0,0-1.381-2.053,6.523,6.523,0,0,0-2.053-1.381,6.281,6.281,0,0,0-2.513-.51,6.265,6.265,0,0,0-2.521.51,6.632,6.632,0,0,0-2.053,1.381,6.464,6.464,0,0,0-1.388,2.053,6.281,6.281,0,0,0-.51,2.513,6.18,6.18,0,0,0,.51,2.5A6.594,6.594,0,0,0,103.4-5.522a6.571,6.571,0,0,0,2.053,1.388,6.265,6.265,0,0,0,2.521.51,6.281,6.281,0,0,0,2.513-.51,6.464,6.464,0,0,0,2.053-1.388,6.656,6.656,0,0,0,1.381-2.046A6.18,6.18,0,0,0,114.428-10.068ZM133.3,0H129.24V-20.306H133.3v8.128h8.114v-8.128h4.064V0h-4.064V-8.114H133.3Zm29.864,0H149.248V-20.306h13.919v4.064h-9.855v4.064h6.669v4.064h-6.669v4.05h9.855ZM180.23,0H166.014V-20.306h4.064V-4.064H180.23ZM186.4-16.242v8.128h4.064a3.915,3.915,0,0,0,1.572-.319,4.114,4.114,0,0,0,1.289-.871,4.092,4.092,0,0,0,.871-1.3,3.966,3.966,0,0,0,.319-1.579,3.966,3.966,0,0,0-.319-1.579,4.092,4.092,0,0,0-.871-1.3,4.114,4.114,0,0,0-1.289-.871,3.915,3.915,0,0,0-1.572-.319ZM186.4,0H182.34V-20.306h8.128a7.923,7.923,0,0,1,2.152.29,8.077,8.077,0,0,1,1.933.821A8.241,8.241,0,0,1,196.2-17.92a8.152,8.152,0,0,1,1.274,1.65,8.211,8.211,0,0,1,.821,1.94,7.923,7.923,0,0,1,.29,2.152,7.881,7.881,0,0,1-.637,3.151A8.205,8.205,0,0,1,196.2-6.443,8.2,8.2,0,0,1,193.619-4.7a7.881,7.881,0,0,1-3.151.637H186.4Z" transform="translate(67 247)" fill="#fff"/>
    </g>
    <g id="그룹_107" data-name="그룹 107" transform="translate(339.603 57.603)">
      <g id="그룹_3" data-name="그룹 3" transform="translate(0 0)">
        <g id="그룹_1" data-name="그룹 1">
          <path id="패스_7" data-name="패스 7" d="M352.176,348.524h7.234c2.831,0,4.079-2.167,3.048-3.862-20.754-34.164-12.24-76.964-9.47-88.209,15.424,25.363,36.766,26.076,36.766,26.076v-8.491s-32.327-7.228-29.669-40.549a5.937,5.937,0,0,0-2.428-5.063l0,0a5.858,5.858,0,0,0-9.059,2.61c-16.315,43.585-15.937,76.292-.407,114.8A4.321,4.321,0,0,0,352.176,348.524Z" transform="translate(-336.45 -198.161)" fill="#6fb2e8"/>
          <ellipse id="타원_12" data-name="타원 12" cx="12.027" cy="12.556" rx="12.027" ry="12.556" transform="translate(13.677 23.931) rotate(-84.195)" fill="#6fb2e8"/>
        </g>
        <g id="그룹_2" data-name="그룹 2" transform="translate(53.303 0)">
          <path id="패스_8" data-name="패스 8" d="M433.583,348.524h-7.234c-2.831,0-4.079-2.167-3.049-3.862,20.755-34.164,12.24-76.964,9.471-88.209-15.424,25.363-36.766,26.076-36.766,26.076v-8.491s32.326-7.228,29.669-40.549a5.937,5.937,0,0,1,2.428-5.063l0,0a5.857,5.857,0,0,1,9.058,2.61c16.315,43.585,15.938,76.292.407,114.8A4.319,4.319,0,0,1,433.583,348.524Z" transform="translate(-396.005 -198.161)" fill="#34dcb8"/>
          <ellipse id="타원_13" data-name="타원 13" cx="12.556" cy="12.027" rx="12.556" ry="12.027" transform="translate(12.21 2.54) rotate(-5.805)" fill="#34dcb8"/>
        </g>
      </g>
    </g>
  </g>
</svg>
